<?xml version="1.0" standalone="no"?>
<!DOCTYPE svg PUBLIC "-//W3C//DTD SVG 20010904//EN"
 "http://www.w3.org/TR/2001/REC-SVG-20010904/DTD/svg10.dtd">
<svg version="1.0" xmlns="http://www.w3.org/2000/svg"
 width="125px" height="60px" >
<metadata>
Created by potrace 1.16, written by Peter Selinger 2001-2019
</metadata>
<g transform="translate(0.000000,60.000000) scale(0.100000,-0.100000)"
fill="#808080b2" stroke="#808080b2">
<path d="M206 574 c-56 -18 -141 -96 -169 -156 -22 -47 -23 -177 -1 -241 18
-52 82 -125 135 -153 23 -12 64 -19 126 -22 85 -4 98 -2 148 22 64 32 127 99
151 162 l17 44 320 0 319 0 -4 65 c-2 35 -7 68 -11 72 -4 4 -149 9 -322 11
l-314 5 -10 28 c-14 40 -97 127 -145 151 -53 27 -174 33 -240 12z m179 -45
c95 -25 159 -101 171 -201 19 -162 -84 -280 -245 -281 -145 -1 -246 104 -245
253 0 71 9 93 60 156 61 75 154 101 259 73z"/>
</g>
<g transform="translate(0.000000,60.000000) scale(0.100000,-0.100000)"
fill="white" stroke="#808080">
<path d="M230 526 c0 -4 -6 -6 -14 -3 -8 3 -17 -1 -20 -10 -4 -9 -9 -14 -12
-11 -6 7 -79 -65 -76 -75 1 -4 -5 -10 -13 -13 -8 -3 -12 -10 -9 -15 3 -5 0 -9
-6 -9 -6 0 -8 -4 -5 -10 3 -5 3 -15 -1 -22 -11 -17 -11 -118 0 -118 4 0 6 -7
3 -15 -4 -8 -2 -17 4 -20 5 -4 7 -11 4 -16 -4 -5 -1 -9 5 -9 6 0 9 -4 6 -9 -3
-5 1 -12 9 -15 8 -3 14 -9 13 -13 -2 -5 10 -22 26 -38 16 -17 25 -23 22 -15
-5 10 -2 9 7 -2 8 -10 17 -15 20 -11 4 3 7 1 7 -6 0 -7 5 -9 10 -6 6 3 10 2
10 -4 0 -6 7 -8 15 -5 8 3 19 3 25 -1 19 -12 100 -14 100 -3 0 6 9 8 20 5 11
-3 20 -1 20 5 0 5 6 8 13 5 6 -2 18 3 25 12 10 12 12 13 6 1 -5 -8 12 5 36 30
25 25 44 48 42 52 -1 3 4 12 11 20 8 7 12 19 9 26 -2 6 0 12 5 12 4 0 8 32 8
70 0 39 -4 70 -9 70 -4 0 -6 9 -3 20 3 11 0 20 -6 20 -6 0 -7 3 -4 7 4 3 -1
12 -11 20 -10 9 -11 12 -2 7 8 -4 -1 8 -20 26 -19 19 -39 33 -43 32 -4 -1 -10
4 -13 12 -3 8 -12 12 -20 9 -8 -3 -14 0 -14 6 0 6 -7 8 -15 5 -8 -4 -15 -2
-15 2 0 5 -34 9 -75 9 -41 0 -75 -4 -75 -9z"/>
<path d="M489 113 c-13 -16 -12 -17 4 -4 9 7 17 15 17 17 0 8 -8 3 -21 -13z"/>
</g>
</svg>
